<?xml version="1.0" encoding="UTF-8" standalone="no"?>
<!-- Created with Inkscape (http://www.inkscape.org/) -->

<svg
   xmlns:ns0="http://www.iki.fi/pav/software/textext/"
   xmlns:dc="http://purl.org/dc/elements/1.1/"
   xmlns:cc="http://creativecommons.org/ns#"
   xmlns:rdf="http://www.w3.org/1999/02/22-rdf-syntax-ns#"
   xmlns:svg="http://www.w3.org/2000/svg"
   xmlns="http://www.w3.org/2000/svg"
   xmlns:xlink="http://www.w3.org/1999/xlink"
   xmlns:sodipodi="http://sodipodi.sourceforge.net/DTD/sodipodi-0.dtd"
   xmlns:inkscape="http://www.inkscape.org/namespaces/inkscape"
   width="314.90381"
   height="302.66846"
   id="svg2"
   version="1.1"
   inkscape:version="0.48.5 r10040"
   sodipodi:docname="c_bad_continuum.svg">
  <sodipodi:namedview
     id="base"
     pagecolor="#ffffff"
     bordercolor="#666666"
     borderopacity="1.0"
     inkscape:pageopacity="0.0"
     inkscape:pageshadow="2"
     inkscape:zoom="1.4"
     inkscape:cx="79.30504"
     inkscape:cy="129.0505"
     inkscape:document-units="px"
     inkscape:current-layer="layer1"
     showgrid="false"
     inkscape:window-width="1366"
     inkscape:window-height="723"
     inkscape:window-x="1920"
     inkscape:window-y="338"
     inkscape:window-maximized="1"
     inkscape:snap-bbox="true"
     inkscape:snap-global="true"
     fit-margin-top="0"
     fit-margin-left="0"
     fit-margin-right="0"
     fit-margin-bottom="0" />
  <defs
     id="defs4">
    <marker
       style="overflow:visible"
       id="Arrow1Lend"
       refX="0"
       refY="0"
       orient="auto"
       inkscape:stockid="Arrow1Lend">
      <path
         transform="matrix(-0.8,0,0,-0.8,-10,0)"
         style="fill-rule:evenodd;stroke:#000000;stroke-width:1pt"
         d="M 0,0 5,-5 -12.5,0 5,5 0,0 z"
         id="path3808"
         inkscape:connector-curvature="0" />
    </marker>
    <marker
       style="overflow:visible"
       id="Arrow1Lstart"
       refX="0"
       refY="0"
       orient="auto"
       inkscape:stockid="Arrow1Lstart">
      <path
         transform="matrix(0.8,0,0,0.8,10,0)"
         style="fill-rule:evenodd;stroke:#000000;stroke-width:1pt"
         d="M 0,0 5,-5 -12.5,0 5,5 0,0 z"
         id="path3805"
         inkscape:connector-curvature="0" />
    </marker>
    <marker
       style="overflow:visible"
       id="Arrow1Lendm"
       refX="0"
       refY="0"
       orient="auto"
       inkscape:stockid="Arrow1Lendm">
      <path
         transform="matrix(-0.8,0,0,-0.8,-10,0)"
         style="fill:#8f9293;fill-rule:evenodd;stroke:#8f9293;stroke-width:1pt"
         d="M 0,0 5,-5 -12.5,0 5,5 0,0 z"
         id="path6510"
         inkscape:connector-curvature="0" />
    </marker>
    <marker
       style="overflow:visible"
       id="Arrow1Lendu"
       refX="0"
       refY="0"
       orient="auto"
       inkscape:stockid="Arrow1Lendu">
      <path
         transform="matrix(-0.8,0,0,-0.8,-10,0)"
         style="fill:#929292;fill-rule:evenodd;stroke:#929292;stroke-width:1pt"
         d="M 0,0 5,-5 -12.5,0 5,5 0,0 z"
         id="path10082"
         inkscape:connector-curvature="0" />
    </marker>
    <marker
       style="overflow:visible"
       id="Arrow1LendT"
       refX="0"
       refY="0"
       orient="auto"
       inkscape:stockid="Arrow1LendT">
      <path
         transform="matrix(-0.8,0,0,-0.8,-10,0)"
         style="fill:#929292;fill-rule:evenodd;stroke:#929292;stroke-width:1pt"
         d="M 0,0 5,-5 -12.5,0 5,5 0,0 z"
         id="path11313"
         inkscape:connector-curvature="0" />
    </marker>
  </defs>
  <metadata
     id="metadata7">
    <rdf:RDF>
      <cc:Work
         rdf:about="">
        <dc:format>image/svg+xml</dc:format>
        <dc:type
           rdf:resource="http://purl.org/dc/dcmitype/StillImage" />
        <dc:title />
      </cc:Work>
    </rdf:RDF>
  </metadata>
  <g
     inkscape:label="Layer 1"
     inkscape:groupmode="layer"
     id="layer1"
     transform="translate(-205.36434,-59.472897)">
    <rect
       style="fill:#ffffff;fill-opacity:1;fill-rule:nonzero;stroke:#000000;stroke-width:0.35210773;stroke-linecap:round;stroke-linejoin:round;stroke-miterlimit:4;stroke-opacity:1;stroke-dasharray:none;stroke-dashoffset:0"
       id="rect14766"
       width="14.227301"
       height="11.115079"
       x="297.54074"
       y="249.25343" />
    <path
       style="fill:none;stroke:#000000;stroke-width:1.60378575px;stroke-linecap:butt;stroke-linejoin:miter;stroke-opacity:1"
       d="m 206.16623,361.33947 c 1.89891,-12.1052 12.68798,-100.05056 91.3259,-100.84515 75.39378,-0.7618 115.14552,48.81186 141.43173,100.13086"
       id="path2987"
       inkscape:connector-curvature="0"
       sodipodi:nodetypes="csc" />
    <g
       transform="matrix(4.1650471,0,0,3.5752867,257.18548,69.801165)"
       ns0:text="$\\vec{n}$"
       ns0:preamble=""
       ns0:page_width="10cm"
       style="stroke-width:0.0000001"
       id="g2989">
      <defs
         id="defs2991">
        <g
           id="g2993">
          <symbol
             style="overflow:visible"
             overflow="visible"
             id="textext-b51b72d1-0">
            <path
               inkscape:connector-curvature="0"
               style="stroke:none"
               d=""
               id="path2996" />
          </symbol>
          <symbol
             style="overflow:visible"
             overflow="visible"
             id="textext-b51b72d1-1">
            <path
               inkscape:connector-curvature="0"
               style="stroke:none"
               d="m 5.359375,-5.9375 c -0.140625,0.140625 -0.46875,0.421875 -0.46875,0.59375 0,0.09375 0.09375,0.203125 0.1875,0.203125 0.09375,0 0.140625,-0.078125 0.203125,-0.140625 C 5.390625,-5.421875 5.625,-5.703125 6.0625,-5.921875 6.125,-5.96875 6.234375,-6.015625 6.234375,-6.125 6.234375,-6.234375 6.15625,-6.28125 6.09375,-6.328125 5.875,-6.484375 5.765625,-6.65625 5.6875,-6.890625 5.65625,-6.984375 5.625,-7.125 5.484375,-7.125 c -0.140625,0 -0.203125,0.140625 -0.203125,0.21875 0,0.046875 0.078125,0.359375 0.234375,0.578125 l -3.359375,0 c -0.15625,0 -0.34375,0 -0.34375,0.203125 0,0.1875 0.1875,0.1875 0.34375,0.1875 z m 0,0"
               id="path2999" />
          </symbol>
          <symbol
             style="overflow:visible"
             overflow="visible"
             id="textext-b51b72d1-2">
            <path
               inkscape:connector-curvature="0"
               style="stroke:none"
               d="m 0.875,-0.59375 c -0.03125,0.15625 -0.09375,0.390625 -0.09375,0.4375 0,0.171875 0.140625,0.265625 0.296875,0.265625 0.125,0 0.296875,-0.078125 0.375,-0.28125 0,-0.015625 0.125,-0.484375 0.1875,-0.734375 l 0.21875,-0.890625 C 1.90625,-2.03125 1.96875,-2.25 2.03125,-2.46875 c 0.03125,-0.171875 0.109375,-0.46875 0.125,-0.5 0.140625,-0.3125 0.671875,-1.21875 1.625,-1.21875 0.453125,0 0.53125,0.375 0.53125,0.703125 0,0.609375 -0.484375,1.890625 -0.640625,2.3125 C 3.578125,-0.9375 3.5625,-0.8125 3.5625,-0.703125 c 0,0.46875 0.359375,0.8125 0.828125,0.8125 0.9375,0 1.296875,-1.453125 1.296875,-1.53125 0,-0.109375 -0.078125,-0.109375 -0.109375,-0.109375 -0.109375,0 -0.109375,0.03125 -0.15625,0.1875 -0.203125,0.671875 -0.53125,1.234375 -1.015625,1.234375 -0.171875,0 -0.234375,-0.09375 -0.234375,-0.328125 0,-0.25 0.078125,-0.484375 0.171875,-0.703125 0.1875,-0.53125 0.609375,-1.625 0.609375,-2.203125 0,-0.65625 -0.421875,-1.0625 -1.140625,-1.0625 -0.90625,0 -1.390625,0.640625 -1.5625,0.875 -0.046875,-0.5625 -0.453125,-0.875 -0.921875,-0.875 -0.453125,0 -0.640625,0.390625 -0.734375,0.5625 C 0.421875,-3.5 0.296875,-2.90625 0.296875,-2.875 c 0,0.109375 0.09375,0.109375 0.109375,0.109375 0.109375,0 0.109375,-0.015625 0.171875,-0.234375 0.171875,-0.703125 0.375,-1.1875 0.734375,-1.1875 0.1875,0 0.296875,0.125 0.296875,0.453125 0,0.21875 -0.03125,0.328125 -0.15625,0.84375 z m 0,0"
               id="path3002" />
          </symbol>
        </g>
      </defs>
      <g
         id="textext-b51b72d1-3">
        <g
           style="fill:#000000;fill-opacity:1"
           id="g3005">
          <use
             height="1052.3622"
             width="744.09448"
             xlink:href="#textext-b51b72d1-1"
             x="-0.26699999"
             y="9.9630003"
             id="use3007" />
        </g>
        <g
           style="fill:#000000;fill-opacity:1"
           id="g3009">
          <use
             height="1052.3622"
             width="744.09448"
             xlink:href="#textext-b51b72d1-2"
             x="0.0019902"
             y="9.9630003"
             id="use3011" />
        </g>
      </g>
    </g>
    <path
       inkscape:connector-curvature="0"
       id="path3799"
       d="m 297.67827,60.12075 0,200.34319"
       style="fill:none;stroke:#000000;stroke-width:1.29570675px;stroke-linecap:butt;stroke-linejoin:miter;stroke-opacity:1;marker-start:url(#Arrow1Lstart)" />
    <path
       inkscape:connector-curvature="0"
       id="path4245"
       d="m 302.27842,260.48939 118.18225,0"
       style="fill:none;stroke:#000000;stroke-width:0.80000001;stroke-linecap:butt;stroke-linejoin:miter;stroke-miterlimit:4;stroke-opacity:1;stroke-dasharray:none"
       sodipodi:nodetypes="cc" />
    <path
       inkscape:connector-curvature="0"
       id="path4247"
       d="M 298.12796,260.22203 519.31474,85.709666"
       style="fill:none;stroke:#000000;stroke-width:1.90680182px;stroke-linecap:butt;stroke-linejoin:miter;stroke-opacity:1;marker-end:url(#Arrow1Lend)" />
    <g
       id="g5287"
       style="stroke-width:0.0000001"
       ns0:page_width="10cm"
       ns0:preamble=""
       ns0:text="$\\vec{c}^{\\,k}$"
       transform="matrix(3.0320472,0,0,3.0006747,263.99042,225.22369)">
      <defs
         id="defs5289">
        <g
           id="g5291">
          <symbol
             id="textext-84c0f888-0"
             overflow="visible"
             style="overflow:visible">
            <path
               id="path5294"
               d=""
               style="stroke:none"
               inkscape:connector-curvature="0" />
          </symbol>
          <symbol
             id="textext-84c0f888-1"
             overflow="visible"
             style="overflow:visible">
            <path
               id="path5297"
               d="m 5.359375,-5.9375 c -0.140625,0.140625 -0.46875,0.421875 -0.46875,0.59375 0,0.09375 0.09375,0.203125 0.1875,0.203125 0.09375,0 0.140625,-0.078125 0.203125,-0.140625 C 5.390625,-5.421875 5.625,-5.703125 6.0625,-5.921875 6.125,-5.96875 6.234375,-6.015625 6.234375,-6.125 6.234375,-6.234375 6.15625,-6.28125 6.09375,-6.328125 5.875,-6.484375 5.765625,-6.65625 5.6875,-6.890625 5.65625,-6.984375 5.625,-7.125 5.484375,-7.125 c -0.140625,0 -0.203125,0.140625 -0.203125,0.21875 0,0.046875 0.078125,0.359375 0.234375,0.578125 l -3.359375,0 c -0.15625,0 -0.34375,0 -0.34375,0.203125 0,0.1875 0.1875,0.1875 0.34375,0.1875 z m 0,0"
               style="stroke:none"
               inkscape:connector-curvature="0" />
          </symbol>
          <symbol
             id="textext-84c0f888-2"
             overflow="visible"
             style="overflow:visible">
            <path
               id="path5300"
               d="m 3.953125,-3.78125 c -0.171875,0 -0.296875,0 -0.4375,0.125 -0.171875,0.15625 -0.1875,0.328125 -0.1875,0.390625 0,0.25 0.1875,0.359375 0.375,0.359375 0.28125,0 0.546875,-0.25 0.546875,-0.640625 0,-0.484375 -0.46875,-0.859375 -1.171875,-0.859375 -1.34375,0 -2.671875,1.421875 -2.671875,2.828125 0,0.90625 0.578125,1.6875 1.625,1.6875 1.421875,0 2.25,-1.0625 2.25,-1.171875 0,-0.0625 -0.046875,-0.140625 -0.109375,-0.140625 -0.0625,0 -0.078125,0.03125 -0.140625,0.109375 -0.78125,0.984375 -1.875,0.984375 -1.984375,0.984375 -0.625,0 -0.90625,-0.484375 -0.90625,-1.09375 0,-0.40625 0.203125,-1.375 0.546875,-1.984375 0.3125,-0.578125 0.859375,-1 1.40625,-1 0.328125,0 0.71875,0.125 0.859375,0.40625 z m 0,0"
               style="stroke:none"
               inkscape:connector-curvature="0" />
          </symbol>
          <symbol
             id="textext-84c0f888-3"
             overflow="visible"
             style="overflow:visible">
            <path
               id="path5303"
               d=""
               style="stroke:none"
               inkscape:connector-curvature="0" />
          </symbol>
          <symbol
             id="textext-84c0f888-4"
             overflow="visible"
             style="overflow:visible">
            <path
               id="path5306"
               d="m 2.1875,-4.625 c 0,-0.015625 0.015625,-0.109375 0.015625,-0.109375 0,-0.046875 -0.015625,-0.109375 -0.109375,-0.109375 -0.140625,0 -0.71875,0.0625 -0.890625,0.078125 -0.046875,0 -0.15625,0.015625 -0.15625,0.15625 0,0.09375 0.109375,0.09375 0.1875,0.09375 0.328125,0 0.328125,0.0625 0.328125,0.109375 0,0.046875 -0.015625,0.09375 -0.015625,0.15625 L 0.5625,-0.3125 c -0.046875,0.125 -0.046875,0.140625 -0.046875,0.15625 0,0.109375 0.09375,0.21875 0.25,0.21875 0.1875,0 0.265625,-0.125 0.3125,-0.28125 0.015625,-0.03125 0.3125,-1.265625 0.34375,-1.359375 0.5,0.046875 0.890625,0.21875 0.890625,0.578125 0,0.03125 0,0.0625 -0.015625,0.140625 -0.03125,0.09375 -0.03125,0.140625 -0.03125,0.21875 0,0.484375 0.40625,0.703125 0.75,0.703125 0.671875,0 0.875,-1.046875 0.875,-1.0625 0,-0.09375 -0.078125,-0.09375 -0.109375,-0.09375 -0.09375,0 -0.109375,0.046875 -0.140625,0.171875 C 3.5625,-0.625 3.375,-0.125 3.03125,-0.125 c -0.1875,0 -0.25,-0.171875 -0.25,-0.359375 0,-0.125 0,-0.140625 0.046875,-0.3125 0.015625,-0.03125 0.03125,-0.140625 0.03125,-0.21875 0,-0.625 -0.828125,-0.71875 -1.125,-0.734375 C 1.9375,-1.875 2.1875,-2.109375 2.3125,-2.21875 2.671875,-2.546875 3.015625,-2.875 3.40625,-2.875 c 0.078125,0 0.171875,0.015625 0.234375,0.09375 C 3.34375,-2.734375 3.28125,-2.5 3.28125,-2.390625 c 0,0.140625 0.109375,0.25 0.265625,0.25 0.203125,0 0.40625,-0.15625 0.40625,-0.4375 0,-0.234375 -0.171875,-0.5 -0.53125,-0.5 -0.40625,0 -0.765625,0.296875 -1.125,0.625 C 2,-2.1875 1.78125,-1.96875 1.484375,-1.84375 z m 0,0"
               style="stroke:none"
               inkscape:connector-curvature="0" />
          </symbol>
        </g>
      </defs>
      <g
         id="textext-84c0f888-5">
        <g
           id="g5309"
           style="fill:#000000;fill-opacity:1">
          <use
             id="use5311"
             y="9.9630003"
             x="-0.54799998"
             xlink:href="#textext-84c0f888-1"
             width="744.09448"
             height="1052.3622" />
        </g>
        <g
           id="g5313"
           style="fill:#000000;fill-opacity:1">
          <use
             id="use5315"
             y="9.9630003"
             x="-5.7000001e-05"
             xlink:href="#textext-84c0f888-2"
             width="744.09448"
             height="1052.3622" />
        </g>
        <g
           id="g5317"
           style="fill:#000000;fill-opacity:1">
          <use
             id="use5319"
             y="6.348"
             x="5.6719999"
             xlink:href="#textext-84c0f888-4"
             width="744.09448"
             height="1052.3622" />
        </g>
      </g>
    </g>
    <path
       sodipodi:type="arc"
       style="fill:#ffffff;fill-opacity:1;fill-rule:evenodd;stroke:#000000;stroke-width:1px;stroke-linecap:butt;stroke-linejoin:miter;stroke-opacity:1"
       id="path5391"
       sodipodi:cx="261.07144"
       sodipodi:cy="309.86218"
       sodipodi:rx="9.6428576"
       sodipodi:ry="6.7857141"
       d="m 270.7143,309.86218 c 0,3.74765 -4.31726,6.78572 -9.64286,6.78572 -5.3256,0 -9.64286,-3.03807 -9.64286,-6.78572 0,-3.74764 4.31726,-6.78571 9.64286,-6.78571 5.3256,0 9.64286,3.03807 9.64286,6.78571 z"
       transform="matrix(0.6898792,0,0,-1.0566913,118.13595,587.02338)" />
    <g
       id="g5665"
       style="stroke-width:0.0000001"
       ns0:page_width="10cm"
       ns0:preamble=""
       ns0:text="$c_{\\mbox{\\tiny bad}}$"
       transform="matrix(4.124992,0,0,4.124992,262.04631,272.23867)">
      <defs
         id="defs5667">
        <g
           id="g5669">
          <symbol
             id="textext-b57a9448-0"
             overflow="visible"
             style="overflow:visible">
            <path
               id="path5672"
               d=""
               style="stroke:none"
               inkscape:connector-curvature="0" />
          </symbol>
          <symbol
             id="textext-b57a9448-1"
             overflow="visible"
             style="overflow:visible">
            <path
               id="path5675"
               d="m 3.953125,-3.78125 c -0.171875,0 -0.296875,0 -0.4375,0.125 -0.171875,0.15625 -0.1875,0.328125 -0.1875,0.390625 0,0.25 0.1875,0.359375 0.375,0.359375 0.28125,0 0.546875,-0.25 0.546875,-0.640625 0,-0.484375 -0.46875,-0.859375 -1.171875,-0.859375 -1.34375,0 -2.671875,1.421875 -2.671875,2.828125 0,0.90625 0.578125,1.6875 1.625,1.6875 1.421875,0 2.25,-1.0625 2.25,-1.171875 0,-0.0625 -0.046875,-0.140625 -0.109375,-0.140625 -0.0625,0 -0.078125,0.03125 -0.140625,0.109375 -0.78125,0.984375 -1.875,0.984375 -1.984375,0.984375 -0.625,0 -0.90625,-0.484375 -0.90625,-1.09375 0,-0.40625 0.203125,-1.375 0.546875,-1.984375 0.3125,-0.578125 0.859375,-1 1.40625,-1 0.328125,0 0.71875,0.125 0.859375,0.40625 z m 0,0"
               style="stroke:none"
               inkscape:connector-curvature="0" />
          </symbol>
          <symbol
             id="textext-b57a9448-2"
             overflow="visible"
             style="overflow:visible">
            <path
               id="path5678"
               d=""
               style="stroke:none"
               inkscape:connector-curvature="0" />
          </symbol>
          <symbol
             id="textext-b57a9448-3"
             overflow="visible"
             style="overflow:visible">
            <path
               id="path5681"
               d="M 1.21875,-3.453125 0.375,-3.40625 l 0,0.21875 c 0.375,0 0.421875,0.03125 0.421875,0.28125 L 0.796875,0 1,0 C 1.046875,-0.0625 1.078125,-0.140625 1.109375,-0.203125 1.125,-0.234375 1.15625,-0.265625 1.171875,-0.296875 1.390625,-0.0625 1.6875,0.0625 2,0.0625 c 0.765625,0 1.375,-0.515625 1.375,-1.140625 0,-0.59375 -0.546875,-1.125 -1.3125,-1.125 -0.265625,0 -0.578125,0.0625 -0.84375,0.28125 z m 0.015625,1.78125 c 0.171875,-0.234375 0.5,-0.359375 0.796875,-0.359375 0.59375,0 0.84375,0.421875 0.84375,0.953125 0,0.296875 -0.0625,0.546875 -0.265625,0.734375 -0.15625,0.140625 -0.390625,0.234375 -0.640625,0.234375 -0.328125,0 -0.59375,-0.1875 -0.734375,-0.421875 z m 0,0"
               style="stroke:none"
               inkscape:connector-curvature="0" />
          </symbol>
          <symbol
             id="textext-b57a9448-4"
             overflow="visible"
             style="overflow:visible">
            <path
               id="path5684"
               d="m 2.609375,-1.484375 c 0,-0.46875 -0.5,-0.75 -1.125,-0.75 -0.296875,0 -0.875,0.015625 -0.875,0.4375 0,0.1875 0.140625,0.265625 0.265625,0.265625 0.125,0 0.25,-0.09375 0.25,-0.265625 0,-0.109375 -0.0625,-0.1875 -0.109375,-0.21875 C 1.1875,-2.0625 1.421875,-2.0625 1.46875,-2.0625 c 0.4375,0 0.6875,0.234375 0.6875,0.59375 l 0,0.125 c -0.46875,0.015625 -0.75,0.03125 -1.125,0.171875 -0.328125,0.109375 -0.625,0.328125 -0.625,0.65625 0,0.453125 0.578125,0.578125 0.984375,0.578125 0.375,0 0.671875,-0.15625 0.828125,-0.421875 0.03125,0.1875 0.140625,0.390625 0.390625,0.390625 0.03125,0 0.609375,0 0.609375,-0.484375 l 0,-0.265625 -0.21875,0 0,0.265625 C 3,-0.40625 3,-0.1875 2.8125,-0.1875 c -0.203125,0 -0.203125,-0.21875 -0.203125,-0.265625 z m -0.453125,0.78125 c 0,0.546875 -0.59375,0.59375 -0.71875,0.59375 -0.296875,0 -0.5625,-0.15625 -0.5625,-0.40625 0,-0.171875 0.09375,-0.625 1.28125,-0.6875 z m 0,0"
               style="stroke:none"
               inkscape:connector-curvature="0" />
          </symbol>
          <symbol
             id="textext-b57a9448-5"
             overflow="visible"
             style="overflow:visible">
            <path
               id="path5687"
               d="m 2.109375,-3.40625 0,0.21875 c 0.359375,0 0.40625,0.03125 0.40625,0.28125 l 0,0.96875 c -0.109375,-0.09375 -0.375,-0.265625 -0.796875,-0.265625 -0.734375,0 -1.359375,0.5 -1.359375,1.125 0,0.609375 0.5625,1.140625 1.3125,1.140625 0.40625,0 0.6875,-0.1875 0.828125,-0.3125 L 2.5,0.0625 3.359375,0 l 0,-0.21875 C 2.984375,-0.21875 2.9375,-0.25 2.9375,-0.5 l 0,-2.953125 z M 2.5,-0.546875 c -0.234375,0.375 -0.609375,0.4375 -0.8125,0.4375 -0.234375,0 -0.484375,-0.09375 -0.65625,-0.3125 -0.15625,-0.21875 -0.171875,-0.5 -0.171875,-0.65625 0,-0.125 0.015625,-0.453125 0.21875,-0.6875 0.171875,-0.171875 0.4375,-0.265625 0.6875,-0.265625 0.140625,0 0.5,0.015625 0.734375,0.359375 z m 0,0"
               style="stroke:none"
               inkscape:connector-curvature="0" />
          </symbol>
        </g>
      </defs>
      <g
         id="textext-b57a9448-6">
        <g
           id="g5690"
           style="fill:#000000;fill-opacity:1">
          <use
             id="use5692"
             y="9.9630003"
             x="0"
             xlink:href="#textext-b57a9448-1"
             width="744.09448"
             height="1052.3622" />
        </g>
        <g
           id="g5694"
           style="fill:#000000;fill-opacity:1">
          <use
             id="use5696"
             y="11.457"
             x="4.3109999"
             xlink:href="#textext-b57a9448-3"
             width="744.09448"
             height="1052.3622" />
          <use
             id="use5698"
             y="11.457"
             x="8.0469751"
             xlink:href="#textext-b57a9448-4"
             width="744.09448"
             height="1052.3622" />
          <use
             id="use5700"
             y="11.457"
             x="11.437248"
             xlink:href="#textext-b57a9448-5"
             width="744.09448"
             height="1052.3622" />
        </g>
      </g>
    </g>
    <path
       sodipodi:nodetypes="cc"
       inkscape:connector-curvature="0"
       id="path4719"
       d="m 413.92857,175.73555 0,84.65337"
       style="fill:none;stroke:#000000;stroke-width:1px;stroke-linecap:butt;stroke-linejoin:miter;stroke-opacity:1" />
    <path
       sodipodi:type="arc"
       style="fill:#ffffff;fill-opacity:1;fill-rule:evenodd;stroke:#000000;stroke-width:1.00022399;stroke-linecap:butt;stroke-linejoin:miter;stroke-miterlimit:4;stroke-opacity:1;stroke-dasharray:none"
       id="path5391-3-7-5"
       sodipodi:cx="261.07144"
       sodipodi:cy="309.86218"
       sodipodi:rx="9.6428576"
       sodipodi:ry="6.7857141"
       d="m 270.7143,309.86218 c 0,3.74765 -4.31726,6.78572 -9.64286,6.78572 -5.3256,0 -9.64286,-3.03807 -9.64286,-6.78572 0,-3.74764 4.31726,-6.78571 9.64286,-6.78571 5.3256,0 9.64286,3.03807 9.64286,6.78571 z"
       transform="matrix(0.6898792,0,0,-1.0566913,234.17796,647.92412)" />
    <path
       sodipodi:nodetypes="cc"
       inkscape:connector-curvature="0"
       id="path5560"
       d="M 304.25196,255.47312 408.45354,173.02587"
       style="fill:#ffffff;fill-opacity:1;fill-rule:nonzero;stroke:#929292;stroke-width:1.70799994;stroke-linecap:round;stroke-linejoin:round;stroke-miterlimit:4;stroke-opacity:1;stroke-dasharray:none;stroke-dashoffset:0;marker-end:url(#Arrow1Lendm)" />
    <g
       transform="matrix(2.3479067,0,0,2.3479067,306.11626,160.65133)"
       ns0:text="$-\\alpha\\frac{\\partial z}{\\partial\\vec{c}}$"
       ns0:preamble=""
       ns0:page_width="10cm"
       style="stroke-width:0.0000001"
       id="g8787">
      <defs
         id="defs8789">
        <g
           id="g8791">
          <symbol
             style="overflow:visible"
             overflow="visible"
             id="textext-40bd33da-0">
            <path
               inkscape:connector-curvature="0"
               style="stroke:none"
               d=""
               id="path8794" />
          </symbol>
          <symbol
             style="overflow:visible"
             overflow="visible"
             id="textext-40bd33da-1">
            <path
               inkscape:connector-curvature="0"
               style="stroke:none"
               d="m 6.5625,-2.296875 c 0.171875,0 0.359375,0 0.359375,-0.203125 0,-0.1875 -0.1875,-0.1875 -0.359375,-0.1875 l -5.390625,0 c -0.171875,0 -0.34375,0 -0.34375,0.1875 0,0.203125 0.171875,0.203125 0.34375,0.203125 z m 0,0"
               id="path8797" />
          </symbol>
          <symbol
             style="overflow:visible"
             overflow="visible"
             id="textext-40bd33da-2">
            <path
               inkscape:connector-curvature="0"
               style="stroke:none"
               d=""
               id="path8800" />
          </symbol>
          <symbol
             style="overflow:visible"
             overflow="visible"
             id="textext-40bd33da-3">
            <path
               inkscape:connector-curvature="0"
               style="stroke:none"
               d="m 4.75,-2.359375 c 0,-1.5625 -0.921875,-2.046875 -1.65625,-2.046875 -1.375,0 -2.6875,1.421875 -2.6875,2.828125 0,0.9375 0.59375,1.6875 1.625,1.6875 0.625,0 1.34375,-0.234375 2.09375,-0.84375 0.125,0.53125 0.453125,0.84375 0.90625,0.84375 0.53125,0 0.84375,-0.546875 0.84375,-0.703125 0,-0.078125 -0.0625,-0.109375 -0.125,-0.109375 -0.0625,0 -0.09375,0.03125 -0.125,0.109375 -0.1875,0.484375 -0.546875,0.484375 -0.5625,0.484375 -0.3125,0 -0.3125,-0.78125 -0.3125,-1.015625 0,-0.203125 0,-0.234375 0.109375,-0.34375 C 5.796875,-2.65625 6,-3.8125 6,-3.8125 6,-3.84375 5.984375,-3.921875 5.875,-3.921875 c -0.09375,0 -0.09375,0.03125 -0.140625,0.21875 -0.1875,0.625 -0.515625,1.375 -0.984375,1.96875 z m -0.65625,1.375 c -0.890625,0.765625 -1.65625,0.875 -2.046875,0.875 -0.59375,0 -0.90625,-0.453125 -0.90625,-1.09375 0,-0.484375 0.265625,-1.5625 0.578125,-2.0625 C 2.1875,-4 2.734375,-4.1875 3.078125,-4.1875 c 0.984375,0 0.984375,1.3125 0.984375,2.078125 0,0.375 0,0.953125 0.03125,1.125 z m 0,0"
               id="path8803" />
          </symbol>
          <symbol
             style="overflow:visible"
             overflow="visible"
             id="textext-40bd33da-4">
            <path
               inkscape:connector-curvature="0"
               style="stroke:none"
               d=""
               id="path8806" />
          </symbol>
          <symbol
             style="overflow:visible"
             overflow="visible"
             id="textext-40bd33da-5">
            <path
               inkscape:connector-curvature="0"
               style="stroke:none"
               d="m 3.65625,-2.359375 c -0.09375,-0.40625 -0.40625,-0.8125 -1.0625,-0.8125 -0.984375,0 -1.78125,0.71875 -2.03125,1.359375 -0.046875,0.109375 -0.140625,0.390625 -0.140625,0.671875 0,0.484375 0.375,1.28125 1.453125,1.28125 1.8125,0 2.546875,-2.25 2.546875,-3.234375 0,-1.203125 -0.78125,-1.875 -1.71875,-1.875 C 1.5625,-4.96875 1.25,-4.0625 1.25,-3.859375 c 0,0.0625 0.046875,0.25 0.28125,0.25 0.25,0 0.390625,-0.203125 0.390625,-0.375 0,-0.1875 -0.140625,-0.25 -0.265625,-0.265625 C 2,-4.78125 2.578125,-4.78125 2.6875,-4.78125 c 0.53125,0 1.140625,0.328125 1.140625,1.328125 0,0.296875 -0.03125,0.546875 -0.15625,1.09375 z m -1.765625,2.28125 c -0.78125,0 -0.875,-0.59375 -0.875,-0.8125 0,-0.265625 0.1875,-0.953125 0.265625,-1.125 0.125,-0.328125 0.546875,-0.96875 1.34375,-0.96875 0.671875,0 0.890625,0.53125 0.890625,0.953125 0,0.46875 -0.453125,1.953125 -1.625,1.953125 z m 0,0"
               id="path8809" />
          </symbol>
          <symbol
             style="overflow:visible"
             overflow="visible"
             id="textext-40bd33da-6">
            <path
               inkscape:connector-curvature="0"
               style="stroke:none"
               d="m 1.171875,-0.609375 c 0.1875,-0.1875 0.3125,-0.3125 0.890625,-0.796875 0.15625,-0.109375 0.671875,-0.53125 0.875,-0.71875 0.421875,-0.421875 0.6875,-0.78125 0.6875,-0.859375 0,-0.09375 -0.078125,-0.09375 -0.109375,-0.09375 -0.0625,0 -0.09375,0.015625 -0.125,0.078125 -0.21875,0.3125 -0.359375,0.421875 -0.53125,0.421875 -0.078125,0 -0.1875,0 -0.390625,-0.203125 -0.234375,-0.25 -0.390625,-0.296875 -0.546875,-0.296875 -0.5625,0 -0.9375,0.609375 -0.9375,0.8125 0,0.078125 0.0625,0.09375 0.109375,0.09375 0.09375,0 0.109375,-0.015625 0.125,-0.09375 0.109375,-0.25 0.5,-0.265625 0.609375,-0.265625 0.171875,0 0.34375,0.046875 0.4375,0.0625 0.390625,0.078125 0.4375,0.078125 0.609375,0.078125 -0.171875,0.203125 -0.296875,0.328125 -0.96875,0.84375 -0.546875,0.4375 -0.734375,0.609375 -0.859375,0.75 -0.421875,0.40625 -0.625,0.71875 -0.625,0.78125 0,0.078125 0.09375,0.078125 0.125,0.078125 0.0625,0 0.078125,0 0.109375,-0.0625 0.1875,-0.265625 0.40625,-0.421875 0.640625,-0.421875 0.09375,0 0.1875,0 0.375,0.171875 0.21875,0.21875 0.359375,0.3125 0.59375,0.3125 C 3,0.0625 3.46875,-0.78125 3.46875,-1.015625 3.46875,-1.09375 3.390625,-1.09375 3.359375,-1.09375 3.265625,-1.09375 3.25,-1.0625 3.21875,-0.984375 3.09375,-0.640625 2.6875,-0.46875 2.34375,-0.46875 2.1875,-0.46875 2,-0.515625 1.828125,-0.546875 1.515625,-0.625 1.453125,-0.625 1.328125,-0.625 c -0.015625,0 -0.109375,0 -0.15625,0.015625 z m 0,0"
               id="path8812" />
          </symbol>
          <symbol
             style="overflow:visible"
             overflow="visible"
             id="textext-40bd33da-7">
            <path
               inkscape:connector-curvature="0"
               style="stroke:none"
               d="m 4.03125,-4.125 c -0.046875,0.0625 -0.296875,0.265625 -0.296875,0.375 0,0.109375 0.078125,0.1875 0.171875,0.1875 0.078125,0 0.125,-0.046875 0.15625,-0.109375 0.1875,-0.203125 0.390625,-0.34375 0.578125,-0.4375 0.09375,-0.03125 0.171875,-0.078125 0.171875,-0.1875 0,-0.09375 -0.0625,-0.125 -0.125,-0.15625 C 4.453125,-4.59375 4.390625,-4.78125 4.359375,-4.859375 4.34375,-4.90625 4.296875,-5.015625 4.1875,-5.015625 c -0.0625,0 -0.171875,0.046875 -0.171875,0.171875 0,0.109375 0.109375,0.296875 0.171875,0.390625 l -2.515625,0 c -0.109375,0 -0.265625,0 -0.265625,0.15625 0,0.171875 0.15625,0.171875 0.265625,0.171875 z m 0,0"
               id="path8815" />
          </symbol>
          <symbol
             style="overflow:visible"
             overflow="visible"
             id="textext-40bd33da-8">
            <path
               inkscape:connector-curvature="0"
               style="stroke:none"
               d="m 3.046875,-2.671875 c -0.25,0.046875 -0.34375,0.234375 -0.34375,0.390625 0,0.1875 0.140625,0.265625 0.265625,0.265625 0.15625,0 0.390625,-0.109375 0.390625,-0.453125 0,-0.46875 -0.53125,-0.609375 -0.90625,-0.609375 -1.046875,0 -2.015625,0.96875 -2.015625,1.9375 0,0.59375 0.40625,1.203125 1.28125,1.203125 1.1875,0 1.734375,-0.6875 1.734375,-0.78125 0,-0.046875 -0.0625,-0.125 -0.125,-0.125 -0.03125,0 -0.046875,0.015625 -0.109375,0.078125 C 2.671875,-0.125 1.859375,-0.125 1.734375,-0.125 c -0.5,0 -0.71875,-0.34375 -0.71875,-0.78125 0,-0.1875 0.09375,-0.953125 0.453125,-1.4375 0.265625,-0.34375 0.625,-0.53125 0.984375,-0.53125 0.09375,0 0.421875,0.015625 0.59375,0.203125 z m 0,0"
               id="path8818" />
          </symbol>
        </g>
      </defs>
      <g
         id="textext-40bd33da-9">
        <g
           style="fill:#000000;fill-opacity:1"
           id="g8821">
          <use
             height="1052.3622"
             width="744.09448"
             xlink:href="#textext-40bd33da-1"
             x="0"
             y="9.9630003"
             id="use8823" />
        </g>
        <g
           style="fill:#000000;fill-opacity:1"
           id="g8825">
          <use
             height="1052.3622"
             width="744.09448"
             xlink:href="#textext-40bd33da-3"
             x="7.7490001"
             y="9.9630003"
             id="use8827" />
        </g>
        <g
           style="fill:#000000;fill-opacity:1"
           id="g8829">
          <use
             height="1052.3622"
             width="744.09448"
             xlink:href="#textext-40bd33da-5"
             x="15.354"
             y="6.04"
             id="use8831" />
        </g>
        <g
           style="fill:#000000;fill-opacity:1"
           id="g8833">
          <use
             height="1052.3622"
             width="744.09448"
             xlink:href="#textext-40bd33da-6"
             x="20.041092"
             y="6.04"
             id="use8835" />
        </g>
        <path
           inkscape:connector-curvature="0"
           style="fill:none;stroke:#000000;stroke-width:0.398;stroke-linecap:butt;stroke-linejoin:miter;stroke-miterlimit:10;stroke-opacity:1"
           d="m 0.00146875,-6.5625e-4 8.77343725,0"
           transform="matrix(1,0,0,-1,15.354,7.472)"
           id="path8837" />
        <g
           style="fill:#000000;fill-opacity:1"
           id="g8839">
          <use
             height="1052.3622"
             width="744.09448"
             xlink:href="#textext-40bd33da-5"
             x="15.62"
             y="13.398"
             id="use8841" />
        </g>
        <g
           style="fill:#000000;fill-opacity:1"
           id="g8843">
          <use
             height="1052.3622"
             width="744.09448"
             xlink:href="#textext-40bd33da-7"
             x="19.937481"
             y="13.398"
             id="use8845" />
        </g>
        <g
           style="fill:#000000;fill-opacity:1"
           id="g8847">
          <use
             height="1052.3622"
             width="744.09448"
             xlink:href="#textext-40bd33da-8"
             x="20.30221"
             y="13.398"
             id="use8849" />
        </g>
      </g>
    </g>
    <g
       id="g9486"
       style="stroke-width:0.0000001"
       ns0:page_width="10cm"
       ns0:preamble=""
       ns0:text="$\\alpha\\frac{(\\frac{\\partial z}{\\partial\\vec{c}},\\vec{n})}{\\|\\vec{n}\\|^2}\\vec{n}$"
       transform="matrix(2.4740363,0,0,2.4740363,422.25158,168.45799)">
      <defs
         id="defs9488">
        <g
           id="g9490">
          <symbol
             id="textext-6484ea2f-0"
             overflow="visible"
             style="overflow:visible">
            <path
               id="path9493"
               d=""
               style="stroke:none"
               inkscape:connector-curvature="0" />
          </symbol>
          <symbol
             id="textext-6484ea2f-1"
             overflow="visible"
             style="overflow:visible">
            <path
               id="path9496"
               d="m 4.75,-2.359375 c 0,-1.5625 -0.921875,-2.046875 -1.65625,-2.046875 -1.375,0 -2.6875,1.421875 -2.6875,2.828125 0,0.9375 0.59375,1.6875 1.625,1.6875 0.625,0 1.34375,-0.234375 2.09375,-0.84375 0.125,0.53125 0.453125,0.84375 0.90625,0.84375 0.53125,0 0.84375,-0.546875 0.84375,-0.703125 0,-0.078125 -0.0625,-0.109375 -0.125,-0.109375 -0.0625,0 -0.09375,0.03125 -0.125,0.109375 -0.1875,0.484375 -0.546875,0.484375 -0.5625,0.484375 -0.3125,0 -0.3125,-0.78125 -0.3125,-1.015625 0,-0.203125 0,-0.234375 0.109375,-0.34375 C 5.796875,-2.65625 6,-3.8125 6,-3.8125 6,-3.84375 5.984375,-3.921875 5.875,-3.921875 c -0.09375,0 -0.09375,0.03125 -0.140625,0.21875 -0.1875,0.625 -0.515625,1.375 -0.984375,1.96875 z m -0.65625,1.375 c -0.890625,0.765625 -1.65625,0.875 -2.046875,0.875 -0.59375,0 -0.90625,-0.453125 -0.90625,-1.09375 0,-0.484375 0.265625,-1.5625 0.578125,-2.0625 C 2.1875,-4 2.734375,-4.1875 3.078125,-4.1875 c 0.984375,0 0.984375,1.3125 0.984375,2.078125 0,0.375 0,0.953125 0.03125,1.125 z m 0,0"
               style="stroke:none"
               inkscape:connector-curvature="0" />
          </symbol>
          <symbol
             id="textext-6484ea2f-2"
             overflow="visible"
             style="overflow:visible">
            <path
               id="path9499"
               d="m 5.359375,-5.9375 c -0.140625,0.140625 -0.46875,0.421875 -0.46875,0.59375 0,0.09375 0.09375,0.203125 0.1875,0.203125 0.09375,0 0.140625,-0.078125 0.203125,-0.140625 C 5.390625,-5.421875 5.625,-5.703125 6.0625,-5.921875 6.125,-5.96875 6.234375,-6.015625 6.234375,-6.125 6.234375,-6.234375 6.15625,-6.28125 6.09375,-6.328125 5.875,-6.484375 5.765625,-6.65625 5.6875,-6.890625 5.65625,-6.984375 5.625,-7.125 5.484375,-7.125 c -0.140625,0 -0.203125,0.140625 -0.203125,0.21875 0,0.046875 0.078125,0.359375 0.234375,0.578125 l -3.359375,0 c -0.15625,0 -0.34375,0 -0.34375,0.203125 0,0.1875 0.1875,0.1875 0.34375,0.1875 z m 0,0"
               style="stroke:none"
               inkscape:connector-curvature="0" />
          </symbol>
          <symbol
             id="textext-6484ea2f-3"
             overflow="visible"
             style="overflow:visible">
            <path
               id="path9502"
               d="m 0.875,-0.59375 c -0.03125,0.15625 -0.09375,0.390625 -0.09375,0.4375 0,0.171875 0.140625,0.265625 0.296875,0.265625 0.125,0 0.296875,-0.078125 0.375,-0.28125 0,-0.015625 0.125,-0.484375 0.1875,-0.734375 l 0.21875,-0.890625 C 1.90625,-2.03125 1.96875,-2.25 2.03125,-2.46875 c 0.03125,-0.171875 0.109375,-0.46875 0.125,-0.5 0.140625,-0.3125 0.671875,-1.21875 1.625,-1.21875 0.453125,0 0.53125,0.375 0.53125,0.703125 0,0.609375 -0.484375,1.890625 -0.640625,2.3125 C 3.578125,-0.9375 3.5625,-0.8125 3.5625,-0.703125 c 0,0.46875 0.359375,0.8125 0.828125,0.8125 0.9375,0 1.296875,-1.453125 1.296875,-1.53125 0,-0.109375 -0.078125,-0.109375 -0.109375,-0.109375 -0.109375,0 -0.109375,0.03125 -0.15625,0.1875 -0.203125,0.671875 -0.53125,1.234375 -1.015625,1.234375 -0.171875,0 -0.234375,-0.09375 -0.234375,-0.328125 0,-0.25 0.078125,-0.484375 0.171875,-0.703125 0.1875,-0.53125 0.609375,-1.625 0.609375,-2.203125 0,-0.65625 -0.421875,-1.0625 -1.140625,-1.0625 -0.90625,0 -1.390625,0.640625 -1.5625,0.875 -0.046875,-0.5625 -0.453125,-0.875 -0.921875,-0.875 -0.453125,0 -0.640625,0.390625 -0.734375,0.5625 C 0.421875,-3.5 0.296875,-2.90625 0.296875,-2.875 c 0,0.109375 0.09375,0.109375 0.109375,0.109375 0.109375,0 0.109375,-0.015625 0.171875,-0.234375 0.171875,-0.703125 0.375,-1.1875 0.734375,-1.1875 0.1875,0 0.296875,0.125 0.296875,0.453125 0,0.21875 -0.03125,0.328125 -0.15625,0.84375 z m 0,0"
               style="stroke:none"
               inkscape:connector-curvature="0" />
          </symbol>
          <symbol
             id="textext-6484ea2f-4"
             overflow="visible"
             style="overflow:visible">
            <path
               id="path9505"
               d=""
               style="stroke:none"
               inkscape:connector-curvature="0" />
          </symbol>
          <symbol
             id="textext-6484ea2f-5"
             overflow="visible"
             style="overflow:visible">
            <path
               id="path9508"
               d="M 2.46875,-5.21875 C 1.15625,-4.296875 0.796875,-2.8125 0.796875,-1.75 c 0,0.984375 0.296875,2.515625 1.671875,3.484375 0.0625,0 0.140625,0 0.140625,-0.078125 0,-0.046875 -0.015625,-0.0625 -0.0625,-0.109375 C 1.609375,0.703125 1.28125,-0.46875 1.28125,-1.734375 1.28125,-3.625 2,-4.546875 2.5625,-5.0625 2.59375,-5.09375 2.609375,-5.109375 2.609375,-5.140625 2.609375,-5.21875 2.53125,-5.21875 2.46875,-5.21875 z m 0,0"
               style="stroke:none"
               inkscape:connector-curvature="0" />
          </symbol>
          <symbol
             id="textext-6484ea2f-6"
             overflow="visible"
             style="overflow:visible">
            <path
               id="path9511"
               d="m 0.625,-5.21875 c -0.046875,0 -0.125,0 -0.125,0.078125 0,0.03125 0.015625,0.046875 0.0625,0.109375 0.59375,0.546875 1.265625,1.484375 1.265625,3.28125 0,1.453125 -0.453125,2.5625 -1.203125,3.234375 -0.125,0.125 -0.125,0.125 -0.125,0.171875 0,0.03125 0.015625,0.078125 0.078125,0.078125 0.09375,0 0.75,-0.453125 1.21875,-1.328125 0.296875,-0.578125 0.5,-1.328125 0.5,-2.140625 C 2.296875,-2.71875 2,-4.25 0.625,-5.21875 z m 0,0"
               style="stroke:none"
               inkscape:connector-curvature="0" />
          </symbol>
          <symbol
             id="textext-6484ea2f-7"
             overflow="visible"
             style="overflow:visible">
            <path
               id="path9514"
               d=""
               style="stroke:none"
               inkscape:connector-curvature="0" />
          </symbol>
          <symbol
             id="textext-6484ea2f-8"
             overflow="visible"
             style="overflow:visible">
            <path
               id="path9517"
               d="M 1.46875,-3.046875 C 1.578125,-3.1875 1.8125,-3.375 2.265625,-3.375 c 0.375,0 0.953125,0.1875 0.953125,0.984375 0,0.234375 -0.046875,0.484375 -0.109375,0.703125 -0.0625,-0.234375 -0.3125,-0.59375 -0.890625,-0.59375 -0.359375,0 -0.734375,0.0625 -1.21875,0.453125 -0.453125,0.375 -0.484375,0.84375 -0.484375,0.984375 0,0.25 0.109375,0.46875 0.34375,0.671875 0.25,0.234375 0.546875,0.28125 0.859375,0.28125 1.484375,0 1.984375,-1.65625 1.984375,-2.28125 0,-0.8125 -0.59375,-1.390625 -1.4375,-1.390625 -0.921875,0 -1.140625,0.65625 -1.140625,0.828125 0,0.109375 0.078125,0.203125 0.203125,0.203125 0.1875,0 0.3125,-0.15625 0.3125,-0.3125 0,-0.171875 -0.171875,-0.203125 -0.171875,-0.203125 z M 1.734375,-0.09375 C 1.171875,-0.09375 1,-0.40625 1,-0.6875 1,-0.75 1.0625,-1.421875 1.390625,-1.765625 1.734375,-2.125 2.125,-2.125 2.25,-2.125 c 0.53125,0 0.765625,0.359375 0.765625,0.703125 0,0.25 -0.28125,1.328125 -1.28125,1.328125 z m 0,0"
               style="stroke:none"
               inkscape:connector-curvature="0" />
          </symbol>
          <symbol
             id="textext-6484ea2f-9"
             overflow="visible"
             style="overflow:visible">
            <path
               id="path9520"
               d="M 1.140625,-0.453125 C 1.34375,-0.640625 1.59375,-0.828125 1.875,-1.03125 2.21875,-1.265625 2.421875,-1.4375 2.640625,-1.625 c 0.25,-0.234375 0.421875,-0.453125 0.421875,-0.515625 0,-0.0625 -0.078125,-0.0625 -0.109375,-0.0625 -0.078125,0 -0.078125,0 -0.109375,0.0625 -0.203125,0.265625 -0.3125,0.28125 -0.390625,0.28125 -0.078125,0 -0.15625,-0.015625 -0.3125,-0.125 -0.171875,-0.140625 -0.28125,-0.21875 -0.46875,-0.21875 -0.453125,0 -0.75,0.4375 -0.75,0.59375 0,0.078125 0.0625,0.078125 0.109375,0.078125 0.046875,0 0.078125,-0.015625 0.09375,-0.0625 0.03125,-0.0625 0.078125,-0.1875 0.46875,-0.1875 0.140625,0 0.25,0.015625 0.515625,0.0625 0.171875,0.03125 0.234375,0.03125 0.328125,0.03125 -0.15625,0.125 -0.296875,0.25 -0.671875,0.53125 -0.359375,0.25 -0.578125,0.40625 -0.8125,0.625 -0.203125,0.171875 -0.4375,0.453125 -0.4375,0.515625 0,0.078125 0.078125,0.078125 0.109375,0.078125 0.0625,0 0.078125,-0.015625 0.109375,-0.046875 0.140625,-0.203125 0.328125,-0.3125 0.5,-0.3125 0.140625,0 0.203125,0.0625 0.390625,0.203125 C 1.765625,0 1.875,0.0625 2.015625,0.0625 c 0.59375,0 0.96875,-0.59375 0.96875,-0.796875 C 2.984375,-0.8125 2.90625,-0.8125 2.875,-0.8125 c -0.078125,0 -0.078125,0.03125 -0.109375,0.078125 -0.109375,0.3125 -0.5,0.359375 -0.6875,0.359375 C 1.96875,-0.375 1.84375,-0.390625 1.6875,-0.40625 1.421875,-0.453125 1.328125,-0.453125 1.265625,-0.453125 c -0.078125,0 -0.09375,0 -0.125,0 z m 0,0"
               style="stroke:none"
               inkscape:connector-curvature="0" />
          </symbol>
          <symbol
             id="textext-6484ea2f-10"
             overflow="visible"
             style="overflow:visible">
            <path
               id="path9523"
               d="m 3.3125,-2.921875 c -0.03125,0.03125 -0.1875,0.15625 -0.1875,0.25 0,0.078125 0.0625,0.140625 0.140625,0.140625 0.03125,0 0.078125,-0.015625 0.109375,-0.0625 0.0625,-0.0625 0.203125,-0.21875 0.484375,-0.328125 0.046875,-0.015625 0.125,-0.046875 0.125,-0.140625 0,-0.09375 -0.0625,-0.125 -0.109375,-0.140625 C 3.6875,-3.296875 3.640625,-3.40625 3.59375,-3.5 3.578125,-3.53125 3.53125,-3.59375 3.453125,-3.59375 c -0.09375,0 -0.140625,0.078125 -0.140625,0.140625 0,0.046875 0.078125,0.171875 0.125,0.25 l -2,0 c -0.078125,0 -0.21875,0 -0.21875,0.140625 0,0.140625 0.140625,0.140625 0.21875,0.140625 z m 0,0"
               style="stroke:none"
               inkscape:connector-curvature="0" />
          </symbol>
          <symbol
             id="textext-6484ea2f-11"
             overflow="visible"
             style="overflow:visible">
            <path
               id="path9526"
               d="m 2.5625,-1.921875 c -0.078125,0.015625 -0.21875,0.125 -0.21875,0.296875 0,0.125 0.09375,0.203125 0.21875,0.203125 0.109375,0 0.296875,-0.09375 0.296875,-0.34375 0,-0.375 -0.484375,-0.4375 -0.75,-0.4375 -0.84375,0 -1.578125,0.6875 -1.578125,1.34375 0,0.4375 0.328125,0.921875 1.078125,0.921875 0.09375,0 0.484375,0 0.828125,-0.140625 0.328125,-0.125 0.53125,-0.359375 0.53125,-0.40625 0,-0.046875 -0.0625,-0.125 -0.109375,-0.125 -0.015625,0 -0.03125,0.015625 -0.109375,0.09375 -0.21875,0.25 -0.640625,0.40625 -1.140625,0.40625 -0.421875,0 -0.625,-0.234375 -0.625,-0.578125 0,-0.515625 0.34375,-1.34375 1.125,-1.34375 0.046875,0 0.296875,0 0.453125,0.109375 z m 0,0"
               style="stroke:none"
               inkscape:connector-curvature="0" />
          </symbol>
          <symbol
             id="textext-6484ea2f-12"
             overflow="visible"
             style="overflow:visible">
            <path
               id="path9529"
               d=""
               style="stroke:none"
               inkscape:connector-curvature="0" />
          </symbol>
          <symbol
             id="textext-6484ea2f-13"
             overflow="visible"
             style="overflow:visible">
            <path
               id="path9532"
               d="m 1.46875,-0.109375 c 0,0.375 -0.0625,0.828125 -0.546875,1.265625 C 0.90625,1.1875 0.875,1.21875 0.875,1.25 c 0,0.046875 0.0625,0.09375 0.09375,0.09375 0.109375,0 0.703125,-0.5625 0.703125,-1.390625 0,-0.421875 -0.171875,-0.75 -0.5,-0.75 -0.21875,0 -0.390625,0.171875 -0.390625,0.390625 C 0.78125,-0.1875 0.9375,0 1.1875,0 1.359375,0 1.46875,-0.109375 1.46875,-0.109375 z m 0,0"
               style="stroke:none"
               inkscape:connector-curvature="0" />
          </symbol>
          <symbol
             id="textext-6484ea2f-14"
             overflow="visible"
             style="overflow:visible">
            <path
               id="path9535"
               d="m 4.03125,-4.125 c -0.046875,0.0625 -0.296875,0.265625 -0.296875,0.375 0,0.109375 0.078125,0.1875 0.171875,0.1875 0.078125,0 0.125,-0.046875 0.15625,-0.109375 0.1875,-0.203125 0.390625,-0.34375 0.578125,-0.4375 0.09375,-0.03125 0.171875,-0.078125 0.171875,-0.1875 0,-0.09375 -0.0625,-0.125 -0.125,-0.15625 C 4.453125,-4.59375 4.390625,-4.78125 4.359375,-4.859375 4.34375,-4.90625 4.296875,-5.015625 4.1875,-5.015625 c -0.0625,0 -0.171875,0.046875 -0.171875,0.171875 0,0.109375 0.109375,0.296875 0.171875,0.390625 l -2.515625,0 c -0.109375,0 -0.265625,0 -0.265625,0.15625 0,0.171875 0.15625,0.171875 0.265625,0.171875 z m 0,0"
               style="stroke:none"
               inkscape:connector-curvature="0" />
          </symbol>
          <symbol
             id="textext-6484ea2f-15"
             overflow="visible"
             style="overflow:visible">
            <path
               id="path9538"
               d="m 0.84375,-0.4375 c -0.015625,0.09375 -0.0625,0.265625 -0.0625,0.28125 0,0.15625 0.125,0.21875 0.234375,0.21875 0.125,0 0.234375,-0.078125 0.28125,-0.140625 0.03125,-0.0625 0.078125,-0.296875 0.125,-0.4375 0.03125,-0.125 0.109375,-0.453125 0.140625,-0.625 0.046875,-0.15625 0.09375,-0.3125 0.125,-0.46875 0.078125,-0.28125 0.09375,-0.34375 0.296875,-0.625 C 2.171875,-2.515625 2.5,-2.875 3.03125,-2.875 c 0.390625,0 0.40625,0.359375 0.40625,0.484375 0,0.421875 -0.296875,1.1875 -0.40625,1.484375 -0.078125,0.203125 -0.109375,0.265625 -0.109375,0.375 0,0.375 0.296875,0.59375 0.65625,0.59375 0.703125,0 1,-0.953125 1,-1.0625 0,-0.09375 -0.078125,-0.09375 -0.109375,-0.09375 -0.09375,0 -0.09375,0.046875 -0.125,0.125 C 4.1875,-0.40625 3.875,-0.125 3.609375,-0.125 c -0.15625,0 -0.1875,-0.09375 -0.1875,-0.25 0,-0.15625 0.046875,-0.25 0.171875,-0.5625 0.078125,-0.21875 0.359375,-0.953125 0.359375,-1.34375 0,-0.671875 -0.53125,-0.796875 -0.90625,-0.796875 -0.578125,0 -0.96875,0.359375 -1.171875,0.640625 -0.046875,-0.484375 -0.453125,-0.640625 -0.75,-0.640625 -0.296875,0 -0.453125,0.21875 -0.546875,0.375 -0.15625,0.265625 -0.25,0.65625 -0.25,0.703125 0,0.078125 0.09375,0.078125 0.125,0.078125 0.09375,0 0.09375,-0.015625 0.140625,-0.203125 0.109375,-0.40625 0.25,-0.75 0.515625,-0.75 0.1875,0 0.234375,0.15625 0.234375,0.34375 0,0.125 -0.0625,0.390625 -0.125,0.578125 -0.046875,0.1875 -0.109375,0.46875 -0.140625,0.625 z m 0,0"
               style="stroke:none"
               inkscape:connector-curvature="0" />
          </symbol>
          <symbol
             id="textext-6484ea2f-16"
             overflow="visible"
             style="overflow:visible">
            <path
               id="path9541"
               d=""
               style="stroke:none"
               inkscape:connector-curvature="0" />
          </symbol>
          <symbol
             id="textext-6484ea2f-17"
             overflow="visible"
             style="overflow:visible">
            <path
               id="path9544"
               d="m 1.4375,-4.96875 c 0,-0.09375 0,-0.25 -0.171875,-0.25 -0.171875,0 -0.171875,0.171875 -0.171875,0.296875 l 0,6.359375 c 0,0.125 0,0.296875 0.171875,0.296875 0.171875,0 0.171875,-0.15625 0.171875,-0.265625 z m 1.53125,0.046875 c 0,-0.125 0,-0.296875 -0.171875,-0.296875 -0.15625,0 -0.15625,0.15625 -0.15625,0.25 l 0,6.4375 c 0,0.109375 0,0.265625 0.15625,0.265625 0.171875,0 0.171875,-0.171875 0.171875,-0.296875 z m 0,0"
               style="stroke:none"
               inkscape:connector-curvature="0" />
          </symbol>
          <symbol
             id="textext-6484ea2f-18"
             overflow="visible"
             style="overflow:visible">
            <path
               id="path9547"
               d=""
               style="stroke:none"
               inkscape:connector-curvature="0" />
          </symbol>
          <symbol
             id="textext-6484ea2f-19"
             overflow="visible"
             style="overflow:visible">
            <path
               id="path9550"
               d="m 2.9375,-0.96875 -0.21875,0 c 0,0.09375 -0.0625,0.40625 -0.140625,0.453125 -0.03125,0.03125 -0.453125,0.03125 -0.53125,0.03125 l -0.96875,0 C 1.40625,-0.71875 1.765625,-1 2.0625,-1.203125 c 0.453125,-0.3125 0.875,-0.59375 0.875,-1.125 0,-0.640625 -0.609375,-0.984375 -1.3125,-0.984375 -0.671875,0 -1.171875,0.375 -1.171875,0.875 0,0.25 0.21875,0.296875 0.296875,0.296875 0.125,0 0.28125,-0.09375 0.28125,-0.296875 0,-0.171875 -0.125,-0.28125 -0.28125,-0.28125 0.140625,-0.234375 0.4375,-0.375 0.765625,-0.375 0.484375,0 0.890625,0.28125 0.890625,0.765625 0,0.421875 -0.296875,0.75 -0.671875,1.0625 l -1.21875,1.03125 C 0.46875,-0.1875 0.453125,-0.1875 0.453125,-0.15625 l 0,0.15625 2.3125,0 z m 0,0"
               style="stroke:none"
               inkscape:connector-curvature="0" />
          </symbol>
        </g>
      </defs>
      <g
         id="textext-6484ea2f-20">
        <g
           id="g9553"
           style="fill:#000000;fill-opacity:1">
          <use
             id="use9555"
             y="11.678"
             x="0"
             xlink:href="#textext-6484ea2f-1"
             width="744.09448"
             height="1052.3622" />
        </g>
        <g
           id="g9557"
           style="fill:#000000;fill-opacity:1">
          <use
             id="use9559"
             y="6.1370001"
             x="7.6059999"
             xlink:href="#textext-6484ea2f-5"
             width="744.09448"
             height="1052.3622" />
        </g>
        <g
           id="g9561"
           style="fill:#000000;fill-opacity:1">
          <use
             id="use9563"
             y="3.46"
             x="11.914"
             xlink:href="#textext-6484ea2f-8"
             width="744.09448"
             height="1052.3622" />
        </g>
        <g
           id="g9565"
           style="fill:#000000;fill-opacity:1">
          <use
             id="use9567"
             y="3.46"
             x="15.988703"
             xlink:href="#textext-6484ea2f-9"
             width="744.09448"
             height="1052.3622" />
        </g>
        <path
           id="path9569"
           transform="matrix(1,0,0,-1,11.914,4.393)"
           d="m 6.25e-5,-0.00153125 7.6914065,0"
           style="fill:none;stroke:#000000;stroke-width:0.398;stroke-linecap:butt;stroke-linejoin:miter;stroke-miterlimit:10;stroke-opacity:1"
           inkscape:connector-curvature="0" />
        <g
           id="g9571"
           style="fill:#000000;fill-opacity:1">
          <use
             id="use9573"
             y="8.5900002"
             x="12.104"
             xlink:href="#textext-6484ea2f-8"
             width="744.09448"
             height="1052.3622" />
        </g>
        <g
           id="g9575"
           style="fill:#000000;fill-opacity:1">
          <use
             id="use9577"
             y="8.5900002"
             x="15.929638"
             xlink:href="#textext-6484ea2f-10"
             width="744.09448"
             height="1052.3622" />
        </g>
        <g
           id="g9579"
           style="fill:#000000;fill-opacity:1">
          <use
             id="use9581"
             y="8.5900002"
             x="16.179201"
             xlink:href="#textext-6484ea2f-11"
             width="744.09448"
             height="1052.3622" />
        </g>
        <g
           id="g9583"
           style="fill:#000000;fill-opacity:1">
          <use
             id="use9585"
             y="6.1370001"
             x="20.802"
             xlink:href="#textext-6484ea2f-13"
             width="744.09448"
             height="1052.3622" />
        </g>
        <g
           id="g9587"
           style="fill:#000000;fill-opacity:1">
          <use
             id="use9589"
             y="6.1370001"
             x="23.049656"
             xlink:href="#textext-6484ea2f-14"
             width="744.09448"
             height="1052.3622" />
        </g>
        <g
           id="g9591"
           style="fill:#000000;fill-opacity:1">
          <use
             id="use9593"
             y="6.1370001"
             x="23.170301"
             xlink:href="#textext-6484ea2f-15"
             width="744.09448"
             height="1052.3622" />
        </g>
        <g
           id="g9595"
           style="fill:#000000;fill-opacity:1">
          <use
             id="use9597"
             y="6.1370001"
             x="28.093"
             xlink:href="#textext-6484ea2f-6"
             width="744.09448"
             height="1052.3622" />
        </g>
        <path
           id="path9599"
           transform="matrix(1,0,0,-1,7.606,9.188)"
           d="m -5.3125e-4,5e-4 23.60156225,0"
           style="fill:none;stroke:#000000;stroke-width:0.398;stroke-linecap:butt;stroke-linejoin:miter;stroke-miterlimit:10;stroke-opacity:1"
           inkscape:connector-curvature="0" />
        <g
           id="g9601"
           style="fill:#000000;fill-opacity:1">
          <use
             id="use9603"
             y="15.114"
             x="10.917"
             xlink:href="#textext-6484ea2f-17"
             width="744.09448"
             height="1052.3622" />
        </g>
        <g
           id="g9605"
           style="fill:#000000;fill-opacity:1">
          <use
             id="use9607"
             y="15.114"
             x="14.884"
             xlink:href="#textext-6484ea2f-14"
             width="744.09448"
             height="1052.3622" />
        </g>
        <g
           id="g9609"
           style="fill:#000000;fill-opacity:1">
          <use
             id="use9611"
             y="15.114"
             x="14.997673"
             xlink:href="#textext-6484ea2f-15"
             width="744.09448"
             height="1052.3622" />
        </g>
        <g
           id="g9613"
           style="fill:#000000;fill-opacity:1">
          <use
             id="use9615"
             y="15.114"
             x="19.924"
             xlink:href="#textext-6484ea2f-17"
             width="744.09448"
             height="1052.3622" />
        </g>
        <g
           id="g9617"
           style="fill:#000000;fill-opacity:1">
          <use
             id="use9619"
             y="13.121"
             x="24.006001"
             xlink:href="#textext-6484ea2f-19"
             width="744.09448"
             height="1052.3622" />
        </g>
        <g
           id="g9621"
           style="fill:#000000;fill-opacity:1">
          <use
             id="use9623"
             y="11.678"
             x="32.133999"
             xlink:href="#textext-6484ea2f-2"
             width="744.09448"
             height="1052.3622" />
        </g>
        <g
           id="g9625"
           style="fill:#000000;fill-opacity:1">
          <use
             id="use9627"
             y="11.678"
             x="32.402988"
             xlink:href="#textext-6484ea2f-3"
             width="744.09448"
             height="1052.3622" />
        </g>
      </g>
    </g>
    <path
       sodipodi:nodetypes="cc"
       inkscape:connector-curvature="0"
       id="path4719-3"
       d="m 413.90597,176.15723 0,74.75754"
       style="fill:none;stroke:#929292;stroke-width:1.69000006;stroke-linecap:round;stroke-linejoin:round;stroke-miterlimit:4;stroke-opacity:1;stroke-dasharray:none;marker-end:url(#Arrow1Lendu)" />
    <path
       sodipodi:type="arc"
       style="fill:#ffffff;fill-opacity:1;fill-rule:evenodd;stroke:#000000;stroke-width:1.00022399;stroke-linecap:butt;stroke-linejoin:miter;stroke-miterlimit:4;stroke-opacity:1;stroke-dasharray:none"
       id="path5391-3-7"
       sodipodi:cx="261.07144"
       sodipodi:cy="309.86218"
       sodipodi:rx="9.6428576"
       sodipodi:ry="6.7857141"
       d="m 270.7143,309.86218 c 0,3.74765 -4.31726,6.78572 -9.64286,6.78572 -5.3256,0 -9.64286,-3.03807 -9.64286,-6.78572 0,-3.74764 4.31726,-6.78571 9.64286,-6.78571 5.3256,0 9.64286,3.03807 9.64286,6.78571 z"
       transform="matrix(0.6898792,0,0,-1.0566913,234.05479,586.8211)" />
    <path
       sodipodi:type="arc"
       style="fill:#ffffff;fill-opacity:1;fill-rule:evenodd;stroke:#000000;stroke-width:1.00022399;stroke-linecap:butt;stroke-linejoin:miter;stroke-miterlimit:4;stroke-opacity:1;stroke-dasharray:none"
       id="path5391-3"
       sodipodi:cx="261.07144"
       sodipodi:cy="309.86218"
       sodipodi:rx="9.6428576"
       sodipodi:ry="6.7857141"
       d="m 270.7143,309.86218 c 0,3.74765 -4.31726,6.78572 -9.64286,6.78572 -5.3256,0 -9.64286,-3.03807 -9.64286,-6.78572 0,-3.74764 4.31726,-6.78571 9.64286,-6.78571 5.3256,0 9.64286,3.03807 9.64286,6.78571 z"
       transform="matrix(-0.6898792,0,0,-1.0566913,594.2703,495.90737)" />
    <path
       style="fill:none;stroke:#929292;stroke-width:1.69000006;stroke-linecap:round;stroke-linejoin:round;stroke-miterlimit:4;stroke-opacity:1;stroke-dasharray:none;marker-end:url(#Arrow1LendT)"
       d="m 295.65902,215.56891 0,44.25854"
       id="path11111"
       inkscape:connector-curvature="0"
       transform="translate(118.49122,51.376401)"
       sodipodi:nodetypes="cc" />
    <g
       transform="matrix(3.5056029,0,0,3.5056029,424.41893,217.79854)"
       ns0:text="$\\vec{c}\\,\'$"
       ns0:preamble=""
       ns0:page_width="10cm"
       style="stroke-width:0.0000001"
       id="g12594">
      <defs
         id="defs12596">
        <g
           id="g12598">
          <symbol
             style="overflow:visible"
             overflow="visible"
             id="textext-2965c884-0">
            <path
               inkscape:connector-curvature="0"
               style="stroke:none"
               d=""
               id="path12601" />
          </symbol>
          <symbol
             style="overflow:visible"
             overflow="visible"
             id="textext-2965c884-1">
            <path
               inkscape:connector-curvature="0"
               style="stroke:none"
               d="m 5.359375,-5.9375 c -0.140625,0.140625 -0.46875,0.421875 -0.46875,0.59375 0,0.09375 0.09375,0.203125 0.1875,0.203125 0.09375,0 0.140625,-0.078125 0.203125,-0.140625 C 5.390625,-5.421875 5.625,-5.703125 6.0625,-5.921875 6.125,-5.96875 6.234375,-6.015625 6.234375,-6.125 6.234375,-6.234375 6.15625,-6.28125 6.09375,-6.328125 5.875,-6.484375 5.765625,-6.65625 5.6875,-6.890625 5.65625,-6.984375 5.625,-7.125 5.484375,-7.125 c -0.140625,0 -0.203125,0.140625 -0.203125,0.21875 0,0.046875 0.078125,0.359375 0.234375,0.578125 l -3.359375,0 c -0.15625,0 -0.34375,0 -0.34375,0.203125 0,0.1875 0.1875,0.1875 0.34375,0.1875 z m 0,0"
               id="path12604" />
          </symbol>
          <symbol
             style="overflow:visible"
             overflow="visible"
             id="textext-2965c884-2">
            <path
               inkscape:connector-curvature="0"
               style="stroke:none"
               d="m 3.953125,-3.78125 c -0.171875,0 -0.296875,0 -0.4375,0.125 -0.171875,0.15625 -0.1875,0.328125 -0.1875,0.390625 0,0.25 0.1875,0.359375 0.375,0.359375 0.28125,0 0.546875,-0.25 0.546875,-0.640625 0,-0.484375 -0.46875,-0.859375 -1.171875,-0.859375 -1.34375,0 -2.671875,1.421875 -2.671875,2.828125 0,0.90625 0.578125,1.6875 1.625,1.6875 1.421875,0 2.25,-1.0625 2.25,-1.171875 0,-0.0625 -0.046875,-0.140625 -0.109375,-0.140625 -0.0625,0 -0.078125,0.03125 -0.140625,0.109375 -0.78125,0.984375 -1.875,0.984375 -1.984375,0.984375 -0.625,0 -0.90625,-0.484375 -0.90625,-1.09375 0,-0.40625 0.203125,-1.375 0.546875,-1.984375 0.3125,-0.578125 0.859375,-1 1.40625,-1 0.328125,0 0.71875,0.125 0.859375,0.40625 z m 0,0"
               id="path12607" />
          </symbol>
          <symbol
             style="overflow:visible"
             overflow="visible"
             id="textext-2965c884-3">
            <path
               inkscape:connector-curvature="0"
               style="stroke:none"
               d=""
               id="path12610" />
          </symbol>
          <symbol
             style="overflow:visible"
             overflow="visible"
             id="textext-2965c884-4">
            <path
               inkscape:connector-curvature="0"
               style="stroke:none"
               d="m 2.015625,-3.296875 c 0.0625,-0.109375 0.0625,-0.171875 0.0625,-0.21875 0,-0.21875 -0.1875,-0.375 -0.40625,-0.375 -0.265625,0 -0.34375,0.21875 -0.375,0.328125 L 0.375,-0.546875 c -0.015625,0.015625 -0.046875,0.09375 -0.046875,0.109375 0,0.078125 0.21875,0.15625 0.28125,0.15625 0.046875,0 0.046875,-0.015625 0.09375,-0.125 z m 0,0"
               id="path12613" />
          </symbol>
        </g>
      </defs>
      <g
         id="textext-2965c884-5">
        <g
           style="fill:#000000;fill-opacity:1"
           id="g12616">
          <use
             height="310.76495"
             width="445.13455"
             xlink:href="#textext-2965c884-1"
             x="-0.54799998"
             y="9.9630003"
             id="use12618" />
        </g>
        <g
           style="fill:#000000;fill-opacity:1"
           id="g12620">
          <use
             height="310.76495"
             width="445.13455"
             xlink:href="#textext-2965c884-2"
             x="-5.7000001e-05"
             y="9.9630003"
             id="use12622" />
        </g>
        <g
           style="fill:#000000;fill-opacity:1"
           id="g12624">
          <use
             height="310.76495"
             width="445.13455"
             xlink:href="#textext-2965c884-4"
             x="5.9720001"
             y="6.348"
             id="use12626" />
        </g>
      </g>
    </g>
    <g
       id="g13158"
       style="stroke-width:0.0000001"
       ns0:page_width="10cm"
       ns0:preamble=""
       ns0:text="$\\vec{c}^{\\,k+1}$"
       transform="matrix(3.1893957,0,0,3.1893957,432.56767,311.05736)">
      <defs
         id="defs13160">
        <g
           id="g13162">
          <symbol
             id="textext-8690624c-0"
             overflow="visible"
             style="overflow:visible">
            <path
               id="path13165"
               d=""
               style="stroke:none"
               inkscape:connector-curvature="0" />
          </symbol>
          <symbol
             id="textext-8690624c-1"
             overflow="visible"
             style="overflow:visible">
            <path
               id="path13168"
               d="m 5.359375,-5.9375 c -0.140625,0.140625 -0.46875,0.421875 -0.46875,0.59375 0,0.09375 0.09375,0.203125 0.1875,0.203125 0.09375,0 0.140625,-0.078125 0.203125,-0.140625 C 5.390625,-5.421875 5.625,-5.703125 6.0625,-5.921875 6.125,-5.96875 6.234375,-6.015625 6.234375,-6.125 6.234375,-6.234375 6.15625,-6.28125 6.09375,-6.328125 5.875,-6.484375 5.765625,-6.65625 5.6875,-6.890625 5.65625,-6.984375 5.625,-7.125 5.484375,-7.125 c -0.140625,0 -0.203125,0.140625 -0.203125,0.21875 0,0.046875 0.078125,0.359375 0.234375,0.578125 l -3.359375,0 c -0.15625,0 -0.34375,0 -0.34375,0.203125 0,0.1875 0.1875,0.1875 0.34375,0.1875 z m 0,0"
               style="stroke:none"
               inkscape:connector-curvature="0" />
          </symbol>
          <symbol
             id="textext-8690624c-2"
             overflow="visible"
             style="overflow:visible">
            <path
               id="path13171"
               d="m 3.953125,-3.78125 c -0.171875,0 -0.296875,0 -0.4375,0.125 -0.171875,0.15625 -0.1875,0.328125 -0.1875,0.390625 0,0.25 0.1875,0.359375 0.375,0.359375 0.28125,0 0.546875,-0.25 0.546875,-0.640625 0,-0.484375 -0.46875,-0.859375 -1.171875,-0.859375 -1.34375,0 -2.671875,1.421875 -2.671875,2.828125 0,0.90625 0.578125,1.6875 1.625,1.6875 1.421875,0 2.25,-1.0625 2.25,-1.171875 0,-0.0625 -0.046875,-0.140625 -0.109375,-0.140625 -0.0625,0 -0.078125,0.03125 -0.140625,0.109375 -0.78125,0.984375 -1.875,0.984375 -1.984375,0.984375 -0.625,0 -0.90625,-0.484375 -0.90625,-1.09375 0,-0.40625 0.203125,-1.375 0.546875,-1.984375 0.3125,-0.578125 0.859375,-1 1.40625,-1 0.328125,0 0.71875,0.125 0.859375,0.40625 z m 0,0"
               style="stroke:none"
               inkscape:connector-curvature="0" />
          </symbol>
          <symbol
             id="textext-8690624c-3"
             overflow="visible"
             style="overflow:visible">
            <path
               id="path13174"
               d=""
               style="stroke:none"
               inkscape:connector-curvature="0" />
          </symbol>
          <symbol
             id="textext-8690624c-4"
             overflow="visible"
             style="overflow:visible">
            <path
               id="path13177"
               d="m 2.1875,-4.625 c 0,-0.015625 0.015625,-0.109375 0.015625,-0.109375 0,-0.046875 -0.015625,-0.109375 -0.109375,-0.109375 -0.140625,0 -0.71875,0.0625 -0.890625,0.078125 -0.046875,0 -0.15625,0.015625 -0.15625,0.15625 0,0.09375 0.109375,0.09375 0.1875,0.09375 0.328125,0 0.328125,0.0625 0.328125,0.109375 0,0.046875 -0.015625,0.09375 -0.015625,0.15625 L 0.5625,-0.3125 c -0.046875,0.125 -0.046875,0.140625 -0.046875,0.15625 0,0.109375 0.09375,0.21875 0.25,0.21875 0.1875,0 0.265625,-0.125 0.3125,-0.28125 0.015625,-0.03125 0.3125,-1.265625 0.34375,-1.359375 0.5,0.046875 0.890625,0.21875 0.890625,0.578125 0,0.03125 0,0.0625 -0.015625,0.140625 -0.03125,0.09375 -0.03125,0.140625 -0.03125,0.21875 0,0.484375 0.40625,0.703125 0.75,0.703125 0.671875,0 0.875,-1.046875 0.875,-1.0625 0,-0.09375 -0.078125,-0.09375 -0.109375,-0.09375 -0.09375,0 -0.109375,0.046875 -0.140625,0.171875 C 3.5625,-0.625 3.375,-0.125 3.03125,-0.125 c -0.1875,0 -0.25,-0.171875 -0.25,-0.359375 0,-0.125 0,-0.140625 0.046875,-0.3125 0.015625,-0.03125 0.03125,-0.140625 0.03125,-0.21875 0,-0.625 -0.828125,-0.71875 -1.125,-0.734375 C 1.9375,-1.875 2.1875,-2.109375 2.3125,-2.21875 2.671875,-2.546875 3.015625,-2.875 3.40625,-2.875 c 0.078125,0 0.171875,0.015625 0.234375,0.09375 C 3.34375,-2.734375 3.28125,-2.5 3.28125,-2.390625 c 0,0.140625 0.109375,0.25 0.265625,0.25 0.203125,0 0.40625,-0.15625 0.40625,-0.4375 0,-0.234375 -0.171875,-0.5 -0.53125,-0.5 -0.40625,0 -0.765625,0.296875 -1.125,0.625 C 2,-2.1875 1.78125,-1.96875 1.484375,-1.84375 z m 0,0"
               style="stroke:none"
               inkscape:connector-curvature="0" />
          </symbol>
          <symbol
             id="textext-8690624c-5"
             overflow="visible"
             style="overflow:visible">
            <path
               id="path13180"
               d=""
               style="stroke:none"
               inkscape:connector-curvature="0" />
          </symbol>
          <symbol
             id="textext-8690624c-6"
             overflow="visible"
             style="overflow:visible">
            <path
               id="path13183"
               d="m 3.21875,-1.578125 2.140625,0 c 0.09375,0 0.25,0 0.25,-0.15625 0,-0.1875 -0.15625,-0.1875 -0.25,-0.1875 l -2.140625,0 0,-2.140625 c 0,-0.078125 0,-0.25 -0.15625,-0.25 -0.171875,0 -0.171875,0.15625 -0.171875,0.25 l 0,2.140625 -2.140625,0 c -0.09375,0 -0.265625,0 -0.265625,0.171875 0,0.171875 0.15625,0.171875 0.265625,0.171875 l 2.140625,0 0,2.140625 c 0,0.09375 0,0.265625 0.15625,0.265625 0.171875,0 0.171875,-0.171875 0.171875,-0.265625 z m 0,0"
               style="stroke:none"
               inkscape:connector-curvature="0" />
          </symbol>
          <symbol
             id="textext-8690624c-7"
             overflow="visible"
             style="overflow:visible">
            <path
               id="path13186"
               d="m 2.328125,-4.4375 c 0,-0.1875 0,-0.1875 -0.203125,-0.1875 -0.453125,0.4375 -1.078125,0.4375 -1.359375,0.4375 l 0,0.25 c 0.15625,0 0.625,0 1,-0.1875 l 0,3.546875 c 0,0.234375 0,0.328125 -0.6875,0.328125 l -0.265625,0 0,0.25 c 0.125,0 0.984375,-0.03125 1.234375,-0.03125 0.21875,0 1.09375,0.03125 1.25,0.03125 l 0,-0.25 -0.265625,0 c -0.703125,0 -0.703125,-0.09375 -0.703125,-0.328125 z m 0,0"
               style="stroke:none"
               inkscape:connector-curvature="0" />
          </symbol>
        </g>
      </defs>
      <g
         id="textext-8690624c-8">
        <g
           id="g13189"
           style="fill:#000000;fill-opacity:1">
          <use
             id="use13191"
             y="9.9630003"
             x="-0.54799998"
             xlink:href="#textext-8690624c-1"
             width="445.13455"
             height="310.76495" />
        </g>
        <g
           id="g13193"
           style="fill:#000000;fill-opacity:1">
          <use
             id="use13195"
             y="9.9630003"
             x="-5.7000001e-05"
             xlink:href="#textext-8690624c-2"
             width="445.13455"
             height="310.76495" />
        </g>
        <g
           id="g13197"
           style="fill:#000000;fill-opacity:1">
          <use
             id="use13199"
             y="6.348"
             x="5.6719999"
             xlink:href="#textext-8690624c-4"
             width="445.13455"
             height="310.76495" />
        </g>
        <g
           id="g13201"
           style="fill:#000000;fill-opacity:1">
          <use
             id="use13203"
             y="6.348"
             x="10.076"
             xlink:href="#textext-8690624c-6"
             width="445.13455"
             height="310.76495" />
          <use
             id="use13205"
             y="6.348"
             x="16.192022"
             xlink:href="#textext-8690624c-7"
             width="445.13455"
             height="310.76495" />
        </g>
      </g>
    </g>
    <g
       transform="matrix(2.9219766,0,0,2.9219766,425.43674,260.98596)"
       ns0:text="$\\lambda\\vec{n}$"
       ns0:preamble=""
       ns0:page_width="10cm"
       style="stroke-width:0.0000001"
       id="g13795">
      <defs
         id="defs13797">
        <g
           id="g13799">
          <symbol
             style="overflow:visible"
             overflow="visible"
             id="textext-6faee93c-0">
            <path
               inkscape:connector-curvature="0"
               style="stroke:none"
               d=""
               id="path13802" />
          </symbol>
          <symbol
             style="overflow:visible"
             overflow="visible"
             id="textext-6faee93c-1">
            <path
               inkscape:connector-curvature="0"
               style="stroke:none"
               d="m 3.5625,-2.90625 c 0.40625,1.046875 0.890625,2.5625 1.046875,2.796875 0.15625,0.21875 0.25,0.21875 0.53125,0.21875 l 0.21875,0 c 0.09375,-0.015625 0.109375,-0.0625 0.109375,-0.09375 0,-0.03125 -0.03125,-0.0625 -0.0625,-0.09375 C 5.3125,-0.1875 5.25,-0.34375 5.1875,-0.53125 L 3.15625,-6.203125 c -0.21875,-0.578125 -0.75,-0.71875 -1.21875,-0.71875 -0.046875,0 -0.1875,0 -0.1875,0.109375 0,0.078125 0.078125,0.109375 0.09375,0.109375 C 2.171875,-6.65625 2.25,-6.59375 2.5,-5.90625 l 0.953125,2.703125 -2.75,2.734375 c -0.109375,0.125 -0.171875,0.171875 -0.171875,0.3125 0,0.171875 0.140625,0.28125 0.296875,0.28125 0.15625,0 0.25,-0.109375 0.328125,-0.203125 z m 0,0"
               id="path13805" />
          </symbol>
          <symbol
             style="overflow:visible"
             overflow="visible"
             id="textext-6faee93c-2">
            <path
               inkscape:connector-curvature="0"
               style="stroke:none"
               d="m 5.359375,-5.9375 c -0.140625,0.140625 -0.46875,0.421875 -0.46875,0.59375 0,0.09375 0.09375,0.203125 0.1875,0.203125 0.09375,0 0.140625,-0.078125 0.203125,-0.140625 C 5.390625,-5.421875 5.625,-5.703125 6.0625,-5.921875 6.125,-5.96875 6.234375,-6.015625 6.234375,-6.125 6.234375,-6.234375 6.15625,-6.28125 6.09375,-6.328125 5.875,-6.484375 5.765625,-6.65625 5.6875,-6.890625 5.65625,-6.984375 5.625,-7.125 5.484375,-7.125 c -0.140625,0 -0.203125,0.140625 -0.203125,0.21875 0,0.046875 0.078125,0.359375 0.234375,0.578125 l -3.359375,0 c -0.15625,0 -0.34375,0 -0.34375,0.203125 0,0.1875 0.1875,0.1875 0.34375,0.1875 z m 0,0"
               id="path13808" />
          </symbol>
          <symbol
             style="overflow:visible"
             overflow="visible"
             id="textext-6faee93c-3">
            <path
               inkscape:connector-curvature="0"
               style="stroke:none"
               d="m 0.875,-0.59375 c -0.03125,0.15625 -0.09375,0.390625 -0.09375,0.4375 0,0.171875 0.140625,0.265625 0.296875,0.265625 0.125,0 0.296875,-0.078125 0.375,-0.28125 0,-0.015625 0.125,-0.484375 0.1875,-0.734375 l 0.21875,-0.890625 C 1.90625,-2.03125 1.96875,-2.25 2.03125,-2.46875 c 0.03125,-0.171875 0.109375,-0.46875 0.125,-0.5 0.140625,-0.3125 0.671875,-1.21875 1.625,-1.21875 0.453125,0 0.53125,0.375 0.53125,0.703125 0,0.609375 -0.484375,1.890625 -0.640625,2.3125 C 3.578125,-0.9375 3.5625,-0.8125 3.5625,-0.703125 c 0,0.46875 0.359375,0.8125 0.828125,0.8125 0.9375,0 1.296875,-1.453125 1.296875,-1.53125 0,-0.109375 -0.078125,-0.109375 -0.109375,-0.109375 -0.109375,0 -0.109375,0.03125 -0.15625,0.1875 -0.203125,0.671875 -0.53125,1.234375 -1.015625,1.234375 -0.171875,0 -0.234375,-0.09375 -0.234375,-0.328125 0,-0.25 0.078125,-0.484375 0.171875,-0.703125 0.1875,-0.53125 0.609375,-1.625 0.609375,-2.203125 0,-0.65625 -0.421875,-1.0625 -1.140625,-1.0625 -0.90625,0 -1.390625,0.640625 -1.5625,0.875 -0.046875,-0.5625 -0.453125,-0.875 -0.921875,-0.875 -0.453125,0 -0.640625,0.390625 -0.734375,0.5625 C 0.421875,-3.5 0.296875,-2.90625 0.296875,-2.875 c 0,0.109375 0.09375,0.109375 0.109375,0.109375 0.109375,0 0.109375,-0.015625 0.171875,-0.234375 0.171875,-0.703125 0.375,-1.1875 0.734375,-1.1875 0.1875,0 0.296875,0.125 0.296875,0.453125 0,0.21875 -0.03125,0.328125 -0.15625,0.84375 z m 0,0"
               id="path13811" />
          </symbol>
        </g>
      </defs>
      <g
         id="textext-6faee93c-4">
        <g
           style="fill:#000000;fill-opacity:1"
           id="g13814">
          <use
             height="310.76495"
             width="445.13455"
             xlink:href="#textext-6faee93c-1"
             x="0"
             y="9.9630003"
             id="use13816" />
        </g>
        <g
           style="fill:#000000;fill-opacity:1"
           id="g13818">
          <use
             height="310.76495"
             width="445.13455"
             xlink:href="#textext-6faee93c-2"
             x="5.5421939"
             y="9.9630003"
             id="use13820" />
        </g>
        <g
           style="fill:#000000;fill-opacity:1"
           id="g13822">
          <use
             height="310.76495"
             width="445.13455"
             xlink:href="#textext-6faee93c-3"
             x="5.8111849"
             y="9.9630003"
             id="use13824" />
        </g>
      </g>
    </g>
    <g
       id="g14406"
       style="stroke-width:0.0000001"
       ns0:page_width="10cm"
       ns0:preamble=""
       ns0:text="$-\\frac{\\partial z}{\\partial \\vec{c}}$"
       transform="matrix(3.4403076,0,0,3.1411049,416.81556,69.802211)">
      <defs
         id="defs14408">
        <g
           id="g14410">
          <symbol
             id="textext-5bd125da-0"
             overflow="visible"
             style="overflow:visible">
            <path
               id="path14413"
               d=""
               style="stroke:none"
               inkscape:connector-curvature="0" />
          </symbol>
          <symbol
             id="textext-5bd125da-1"
             overflow="visible"
             style="overflow:visible">
            <path
               id="path14416"
               d="m 6.5625,-2.296875 c 0.171875,0 0.359375,0 0.359375,-0.203125 0,-0.1875 -0.1875,-0.1875 -0.359375,-0.1875 l -5.390625,0 c -0.171875,0 -0.34375,0 -0.34375,0.1875 0,0.203125 0.171875,0.203125 0.34375,0.203125 z m 0,0"
               style="stroke:none"
               inkscape:connector-curvature="0" />
          </symbol>
          <symbol
             id="textext-5bd125da-2"
             overflow="visible"
             style="overflow:visible">
            <path
               id="path14419"
               d=""
               style="stroke:none"
               inkscape:connector-curvature="0" />
          </symbol>
          <symbol
             id="textext-5bd125da-3"
             overflow="visible"
             style="overflow:visible">
            <path
               id="path14422"
               d="m 3.65625,-2.359375 c -0.09375,-0.40625 -0.40625,-0.8125 -1.0625,-0.8125 -0.984375,0 -1.78125,0.71875 -2.03125,1.359375 -0.046875,0.109375 -0.140625,0.390625 -0.140625,0.671875 0,0.484375 0.375,1.28125 1.453125,1.28125 1.8125,0 2.546875,-2.25 2.546875,-3.234375 0,-1.203125 -0.78125,-1.875 -1.71875,-1.875 C 1.5625,-4.96875 1.25,-4.0625 1.25,-3.859375 c 0,0.0625 0.046875,0.25 0.28125,0.25 0.25,0 0.390625,-0.203125 0.390625,-0.375 0,-0.1875 -0.140625,-0.25 -0.265625,-0.265625 C 2,-4.78125 2.578125,-4.78125 2.6875,-4.78125 c 0.53125,0 1.140625,0.328125 1.140625,1.328125 0,0.296875 -0.03125,0.546875 -0.15625,1.09375 z m -1.765625,2.28125 c -0.78125,0 -0.875,-0.59375 -0.875,-0.8125 0,-0.265625 0.1875,-0.953125 0.265625,-1.125 0.125,-0.328125 0.546875,-0.96875 1.34375,-0.96875 0.671875,0 0.890625,0.53125 0.890625,0.953125 0,0.46875 -0.453125,1.953125 -1.625,1.953125 z m 0,0"
               style="stroke:none"
               inkscape:connector-curvature="0" />
          </symbol>
          <symbol
             id="textext-5bd125da-4"
             overflow="visible"
             style="overflow:visible">
            <path
               id="path14425"
               d="m 1.171875,-0.609375 c 0.1875,-0.1875 0.3125,-0.3125 0.890625,-0.796875 0.15625,-0.109375 0.671875,-0.53125 0.875,-0.71875 0.421875,-0.421875 0.6875,-0.78125 0.6875,-0.859375 0,-0.09375 -0.078125,-0.09375 -0.109375,-0.09375 -0.0625,0 -0.09375,0.015625 -0.125,0.078125 -0.21875,0.3125 -0.359375,0.421875 -0.53125,0.421875 -0.078125,0 -0.1875,0 -0.390625,-0.203125 -0.234375,-0.25 -0.390625,-0.296875 -0.546875,-0.296875 -0.5625,0 -0.9375,0.609375 -0.9375,0.8125 0,0.078125 0.0625,0.09375 0.109375,0.09375 0.09375,0 0.109375,-0.015625 0.125,-0.09375 0.109375,-0.25 0.5,-0.265625 0.609375,-0.265625 0.171875,0 0.34375,0.046875 0.4375,0.0625 0.390625,0.078125 0.4375,0.078125 0.609375,0.078125 -0.171875,0.203125 -0.296875,0.328125 -0.96875,0.84375 -0.546875,0.4375 -0.734375,0.609375 -0.859375,0.75 -0.421875,0.40625 -0.625,0.71875 -0.625,0.78125 0,0.078125 0.09375,0.078125 0.125,0.078125 0.0625,0 0.078125,0 0.109375,-0.0625 0.1875,-0.265625 0.40625,-0.421875 0.640625,-0.421875 0.09375,0 0.1875,0 0.375,0.171875 0.21875,0.21875 0.359375,0.3125 0.59375,0.3125 C 3,0.0625 3.46875,-0.78125 3.46875,-1.015625 3.46875,-1.09375 3.390625,-1.09375 3.359375,-1.09375 3.265625,-1.09375 3.25,-1.0625 3.21875,-0.984375 3.09375,-0.640625 2.6875,-0.46875 2.34375,-0.46875 2.1875,-0.46875 2,-0.515625 1.828125,-0.546875 1.515625,-0.625 1.453125,-0.625 1.328125,-0.625 c -0.015625,0 -0.109375,0 -0.15625,0.015625 z m 0,0"
               style="stroke:none"
               inkscape:connector-curvature="0" />
          </symbol>
          <symbol
             id="textext-5bd125da-5"
             overflow="visible"
             style="overflow:visible">
            <path
               id="path14428"
               d="m 4.03125,-4.125 c -0.046875,0.0625 -0.296875,0.265625 -0.296875,0.375 0,0.109375 0.078125,0.1875 0.171875,0.1875 0.078125,0 0.125,-0.046875 0.15625,-0.109375 0.1875,-0.203125 0.390625,-0.34375 0.578125,-0.4375 0.09375,-0.03125 0.171875,-0.078125 0.171875,-0.1875 0,-0.09375 -0.0625,-0.125 -0.125,-0.15625 C 4.453125,-4.59375 4.390625,-4.78125 4.359375,-4.859375 4.34375,-4.90625 4.296875,-5.015625 4.1875,-5.015625 c -0.0625,0 -0.171875,0.046875 -0.171875,0.171875 0,0.109375 0.109375,0.296875 0.171875,0.390625 l -2.515625,0 c -0.109375,0 -0.265625,0 -0.265625,0.15625 0,0.171875 0.15625,0.171875 0.265625,0.171875 z m 0,0"
               style="stroke:none"
               inkscape:connector-curvature="0" />
          </symbol>
          <symbol
             id="textext-5bd125da-6"
             overflow="visible"
             style="overflow:visible">
            <path
               id="path14431"
               d="m 3.046875,-2.671875 c -0.25,0.046875 -0.34375,0.234375 -0.34375,0.390625 0,0.1875 0.140625,0.265625 0.265625,0.265625 0.15625,0 0.390625,-0.109375 0.390625,-0.453125 0,-0.46875 -0.53125,-0.609375 -0.90625,-0.609375 -1.046875,0 -2.015625,0.96875 -2.015625,1.9375 0,0.59375 0.40625,1.203125 1.28125,1.203125 1.1875,0 1.734375,-0.6875 1.734375,-0.78125 0,-0.046875 -0.0625,-0.125 -0.125,-0.125 -0.03125,0 -0.046875,0.015625 -0.109375,0.078125 C 2.671875,-0.125 1.859375,-0.125 1.734375,-0.125 c -0.5,0 -0.71875,-0.34375 -0.71875,-0.78125 0,-0.1875 0.09375,-0.953125 0.453125,-1.4375 0.265625,-0.34375 0.625,-0.53125 0.984375,-0.53125 0.09375,0 0.421875,0.015625 0.59375,0.203125 z m 0,0"
               style="stroke:none"
               inkscape:connector-curvature="0" />
          </symbol>
        </g>
      </defs>
      <g
         id="textext-5bd125da-7">
        <g
           id="g14434"
           style="fill:#000000;fill-opacity:1">
          <use
             id="use14436"
             y="9.9630003"
             x="0"
             xlink:href="#textext-5bd125da-1"
             width="445.13455"
             height="310.76495" />
        </g>
        <g
           id="g14438"
           style="fill:#000000;fill-opacity:1">
          <use
             id="use14440"
             y="6.04"
             x="8.9440002"
             xlink:href="#textext-5bd125da-3"
             width="445.13455"
             height="310.76495" />
        </g>
        <g
           id="g14442"
           style="fill:#000000;fill-opacity:1">
          <use
             id="use14444"
             y="6.04"
             x="13.631091"
             xlink:href="#textext-5bd125da-4"
             width="445.13455"
             height="310.76495" />
        </g>
        <path
           id="path14446"
           transform="matrix(1,0,0,-1,8.944,7.472)"
           d="m 0.0013125,-6.5625e-4 8.7734375,0"
           style="fill:none;stroke:#000000;stroke-width:0.398;stroke-linecap:butt;stroke-linejoin:miter;stroke-miterlimit:10;stroke-opacity:1"
           inkscape:connector-curvature="0" />
        <g
           id="g14448"
           style="fill:#000000;fill-opacity:1">
          <use
             id="use14450"
             y="13.398"
             x="9.21"
             xlink:href="#textext-5bd125da-3"
             width="445.13455"
             height="310.76495" />
        </g>
        <g
           id="g14452"
           style="fill:#000000;fill-opacity:1">
          <use
             id="use14454"
             y="13.398"
             x="13.52748"
             xlink:href="#textext-5bd125da-5"
             width="445.13455"
             height="310.76495" />
        </g>
        <g
           id="g14456"
           style="fill:#000000;fill-opacity:1">
          <use
             id="use14458"
             y="13.398"
             x="13.892209"
             xlink:href="#textext-5bd125da-6"
             width="445.13455"
             height="310.76495" />
        </g>
      </g>
    </g>
    <text
       xml:space="preserve"
       style="font-size:40px;font-style:normal;font-weight:normal;line-height:125%;letter-spacing:0px;word-spacing:0px;fill:#000000;fill-opacity:1;stroke:none;font-family:Sans"
       x="250.51784"
       y="172.37405"
       id="text14758"
       sodipodi:linespacing="125%"
       transform="translate(118.49122,51.376401)"><tspan
         sodipodi:role="line"
         id="tspan14760"
         x="250.51784"
         y="172.37405"></tspan></text>
    <text
       xml:space="preserve"
       style="font-size:40px;font-style:normal;font-weight:normal;line-height:125%;letter-spacing:0px;word-spacing:0px;fill:#000000;fill-opacity:1;stroke:none;font-family:Sans"
       x="-53.538086"
       y="200.65833"
       id="text14762"
       sodipodi:linespacing="125%"
       transform="translate(118.49122,51.376401)"><tspan
         sodipodi:role="line"
         id="tspan14764"
         x="-53.538086"
         y="200.65833"></tspan></text>
  </g>
</svg>
